<?xml version="1.0" encoding="UTF-8"?>
<svg id="Layer_1" xmlns="http://www.w3.org/2000/svg" version="1.1" viewBox="0 0 510 508">
  <!-- Generator: Adobe Illustrator 29.8.2, SVG Export Plug-In . SVG Version: 2.1.1 Build 3)  -->
  <defs>
    <style>
      .st0 {
        fill: #6ba66c;
      }

      .st1 {
        fill: #14881e;
      }

      .st2 {
        fill: #c5d5c3;
      }

      .st3 {
        fill: #5ea161;
      }

      .st4 {
        fill: #a0a5a0;
      }

      .st5 {
        fill: #21d960;
      }

      .st6 {
        fill: #00ae3c;
      }

      .st7 {
        fill: #fefefc;
      }

      .st8 {
        fill: #95a194;
      }

      .st9 {
        fill: #2ccb65;
      }
    </style>
  </defs>
  <path class="st4" d="M297,0v1c0,.8-.2,2-.7,2-26,.6-54,.6-80.1,0l-1.2-2V0h82Z"/>
  <path class="st2" d="M510,296h-1c-2.5-4.1-3.3-9-2.6-14.8,1.1-21,1.4-42,1-63l1.6-4.2h1v82Z"/>
  <path class="st8" d="M296,507v1h-81v-1l4.4-1.6c20.4.4,40.7.1,61.1-.9,5.9-.8,11.1,0,15.5,2.5Z"/>
  <path class="st7" d="M215,1h82c3.7.6,6.2,4.8,7.5,8l8.6,53.4,2.6,3.4,31.1,11.9h3.5s47.2-33.9,47.2-33.9c4.6-2,10.5-1.3,14.6,1.5,9.8,6.9,24,24.9,32.9,34.1s20.1,18,20.8,21.2.5,7.7-.2,10.3l-31.8,44.2c-1.6,4.1-.7,7.1.5,11s8.1,21,10.6,25.4c3.7,6.6,9.2,4.3,14.6,5.4,7.8,1.6,15.5,4,23.4,5.6s25,.4,26.2,11.3c2.9,25.4-2.2,56.1,0,82-.2,4-4.6,7.3-8.2,8.3-14.5,4.2-35.1,3.4-49.9,8.1s-4.4,1.8-6.2,4.8-9.5,21.4-10.9,26.1c-2.4,8.3,0,9.5,4.2,15.9,8.5,13,18.8,25.6,27.6,38.4,3.5,16.2-11.5,22.9-20.8,31.8s-10.3,10.4-15.5,15.5-18.4,19.9-22.1,21-7.8.6-10.8-1.1c-14.3-9-28.3-22.9-42.7-31.2-1.4-.8-3.2-2.2-4.7-2.4-6.2-1-27,10.5-34.6,11.8-1.1.6-1.1,1.8-1.4,2.8-4,15.6-3.7,34.7-7.8,50.3s-4,10.7-9.5,11c-25.9-2-55.6,2.6-81,0-5-.5-7.3-2.9-9-7.5-5-14-4.5-35.3-8.5-50.5s-.4-2.8-1.1-3.9c-2.6-4.5-27.5-10.2-33.2-13.9h-3.5s-46.4,33.6-46.4,33.6c-4.8,2.9-10,1.9-14.4-1.3-12-8.9-27.5-28.3-38.4-39.6s-19.8-12.6-14.8-26.7c7.5-13.6,24.1-29.1,30.6-42.4s-.6-11.9-3.6-19.2-6.3-19.7-10.9-22.1l-51.2-8.8c-5.6-2.1-9.2-5-9.8-11.2-2.3-24.4,1.8-52.3,0-77.1-.3-5.3,5.4-10.5,10.2-11.8,13.1-3.5,29.4-3.9,43-7,8.2-1.9,9.2-1.4,13-9s9.4-20.3,10.3-24.7.8-4.9-.7-8.4c-5.9-13.5-23.7-30.2-30.9-44.1-1.8-6.1-1.9-10.1,2.1-15.1,13.7-17.5,36.5-33.5,51-51,4.2-3.6,10.6-3.9,15.4-1.3l46.4,33.7,3.3-.2c5-3.2,30.5-9.4,32.4-12.6s.7-2.7,1.1-3.9c3-11.3,5.6-50.4,10.8-56.7s4.4-3.1,6.7-3.3ZM381,257.8c0-69.4-56.2-125.6-125.6-125.6s-125.6,56.2-125.6,125.6,56.2,125.6,125.6,125.6,125.6-56.2,125.6-125.6Z"/>
  <path class="st6" d="M306,341c-.2,0-1.1.9-2,.4-2.6-1.3-11.8-11.5-14.3-11.3s-11.1,6.5-15.6,6c-.7,4-1.5,17.9-4.8,19.9s-24,1.4-27.3-.6c-5.6-3.6-1.9-17.1-7.3-20.7s-9-4-10.7-4.3c-11.2-2.2-16.3,16-29.5,6.6-2.4-1.7-14.8-13.6-15.3-15.7-1.9-8.5,10.8-17.3,9.4-22.3s-8.2-16.5-9-17.1c-4.4-3.2-18.4,2.4-22.4-5.6s-1.9-27.5,0-30.8c3.9-6.7,20.3-1.3,24.1-7.9s4.5-11.5,4.6-12.5c1-6.1-13-11.2-11.9-20.8s15.7-22,19-23c11.3-3.5,16.8,9.5,22.6,9.5s14.4-6.7,15.8-7.9c4.9-4-3.2-22.2,14.2-22.1s10.6.2,17,0c18.3-.6,11.2,10.7,15.4,20.7s15.3,10.4,17.5,10.2c5.5-.5,11.3-11.8,22-8.6,4,1.2,13.7,15.2,17.7,18.3,6.4,10.4-6.4,15.7-9.9,22.2s3.8,15.9,5.2,17.1c3.3,2.7,18.1.5,22.2,5.3s1.5,12.7,1.5,17c1,3.3.5,6.7,0,10-.6,2.5-1.7,8-5.5,8h-18c-2.1,5.4-9.2,15.5-8.5,21,4.1,5.5,7.8,11.1,11,17,0,1.5-1.2,6.2-2,7.5s-13.7,12.2-16,13.5c-2.6,1.5-5.6,1.8-9,1ZM248,220c0,.6-3.9,1.5-5,2-3-1.8-6.9,2.3-9,4-43.4,34.5,3,90.2,42.5,64,28.4-18.8,17.7-64.7-13.5-70-4.7-2.3-10.9-.4-16-1-.2,1.1,1,.9,1,1Z"/>
  <path class="st1" d="M322,302l9.8,12.7c.9,1.3,1.2,2.7,1.2,4.3-1.9-4.3-10.5-13-11-17Z"/>
  <path class="st0" d="M354,273c0-3.3,0-6.7,0-10,2.5,2.8.7,7,0,10Z"/>
  <path class="st3" d="M315,340c-.3.2-.4,1.6-2.5,2-3.3.6-4.4-.6-6.5-1l9-1Z"/>
  <path class="st5" d="M263,220c-4.4-.7-10.4.5-15,0,0,0-1.2.1-1-1,5.1.6,11.3-1.3,16,1Z"/>
  <path class="st9" d="M243,222c-3,1.4-5.7,3.3-9,4,2.1-1.7,6-5.8,9-4Z"/>
</svg>